<?xml version="1.0" encoding="UTF-8"?>
<svg version="1.1" xmlns="http://www.w3.org/2000/svg" width="512" height="512">
<defs>
    <linearGradient id="defaultGradient" x1="0%" y1="0%" x2="100%" y2="100%" gradientTransform="rotate(50)">
      <stop offset="0%" style="stop-color:#ffd700;stop-opacity:1" />
      <stop offset="50%" style="stop-color:#ffc340;stop-opacity:1" />
      <stop offset="100%" style="stop-color:#ffbb6e;stop-opacity:1" />
    </linearGradient>
  </defs>
<path d="M0 0 C41.7903741 -1.99423842 80.75716508 21.13237014 111.4921875 46.94921875 C114.62264551 49.57137502 117.8165574 52.08411201 121.06518555 54.55737305 C127.14272265 59.19148445 132.64556401 64.1364041 137.94628906 69.64672852 C140.64579413 72.45091736 143.4005063 75.09623471 146.3515625 77.63671875 C151.10625265 81.7441736 155.55681921 86.13049336 159.99609375 90.57421875 C160.83575684 91.4146875 161.67541992 92.25515625 162.54052734 93.12109375 C168.29500696 98.93274821 173.55558366 104.85338339 178.55859375 111.32421875 C180.01685199 113.03261618 181.47518847 114.74094683 182.93359375 116.44921875 C204.96661481 143.54906695 217.11127888 175.25618363 214.55859375 210.32421875 C213.56755171 218.15244985 211.68854164 225.73703527 209.55859375 233.32421875 C209.31222168 234.21592773 209.06584961 235.10763672 208.81201172 236.02636719 C201.36453103 262.23420058 186.92556779 283.70315048 169.7265625 304.46484375 C167.14835614 307.58223664 164.65832301 310.75690098 162.19262695 313.96362305 C158.03710419 319.36235742 153.80101192 324.38351819 148.82421875 329.06640625 C146.98685187 330.89743738 145.33064211 332.7401133 143.65234375 334.7109375 C138.59969962 340.53592594 133.12202757 345.94680479 127.671875 351.39624023 C125.82130408 353.24899343 123.97889299 355.10960581 122.13671875 356.97070312 C115.25670255 363.88378162 108.28161092 370.34813074 100.55859375 376.32421875 C99.56835205 377.10333618 99.56835205 377.10333618 98.55810547 377.89819336 C72.19546917 398.41164217 40.5117274 412.23946681 6.55859375 409.32421875 C-22.24933764 405.11905565 -49.11527714 394.77360991 -72.44140625 377.32421875 C-73.45976562 376.56753906 -74.478125 375.81085938 -75.52734375 375.03125 C-97.09285433 358.71068458 -117.2064754 340.74695448 -136.31787109 321.63305664 C-138.19870943 319.75442413 -140.08745813 317.88398769 -141.9765625 316.01367188 C-148.92722664 309.09553184 -155.43073457 302.08806938 -161.44140625 294.32421875 C-162.21218506 293.35029175 -162.21218506 293.35029175 -162.99853516 292.35668945 C-181.95764669 268.18197274 -197.93404693 235.54173454 -194.16015625 203.97143555 C-193.75907019 201.34928426 -193.30235742 198.74447783 -192.81640625 196.13671875 C-192.63891846 195.18200684 -192.46143066 194.22729492 -192.27856445 193.24365234 C-189.1765721 177.23226542 -184.62573624 161.9794447 -177.44140625 147.32421875 C-176.920625 146.24269531 -176.39984375 145.16117188 -175.86328125 144.046875 C-168.28525737 129.16672617 -157.72122065 116.12969328 -147.10009766 103.33886719 C-145.39566058 101.26865601 -143.7182287 99.17902111 -142.046875 97.08203125 C-136.85389365 90.57859418 -131.71758233 84.22329911 -125.63671875 78.51171875 C-123.78833103 76.66990892 -122.11242777 74.79998507 -120.41796875 72.8203125 C-115.92711411 67.64427012 -111.10687351 62.80362935 -106.26367188 57.96118164 C-104.70280298 56.39813141 -103.15012737 54.8272451 -101.59765625 53.25585938 C-95.20559378 46.82804464 -88.57474813 40.93646968 -81.44140625 35.32421875 C-80.34541787 34.43213866 -79.25018363 33.53912983 -78.15625 32.64453125 C-54.97234731 14.31913982 -29.51930119 2.78104654 0 0 Z " fill="url(#defaultGradient)" transform="translate(247.44140625,55.67578125)"/>
<path d="M0 0 C0.79172607 0.00870117 1.58345215 0.01740234 2.39916992 0.02636719 C9.63655978 0.20735757 15.63578252 1.40182362 22 4.9375 C25.78621174 9.15642165 29.04479996 14.43537927 29.32421875 20.19140625 C29.27910156 20.91199219 29.23398438 21.63257813 29.1875 22.375 C24.90452469 23.43119003 20.75764354 23.49202092 16.375 23.4375 C15.68212891 23.43298828 14.98925781 23.42847656 14.27539062 23.42382812 C12.57938932 23.41213156 10.88343297 23.39419924 9.1875 23.375 C8.73375 22.240625 8.28 21.10625 7.8125 19.9375 C6.61654194 16.32778308 6.61654194 16.32778308 4.1875 15.375 C2.69100638 15.25494547 1.18875207 15.19968549 -0.3125 15.1875 C-1.1065625 15.17332031 -1.900625 15.15914062 -2.71875 15.14453125 C-5.03283317 15.17833697 -5.03283317 15.17833697 -6.8125 17.375 C-7.04250198 19.89929495 -7.04250198 19.89929495 -5.8125 22.375 C-0.98294966 24.75290837 3.96754923 26.26232134 9.125 27.75 C17.89538528 30.39842291 23.3520269 33.08065862 29.1875 40.375 C29.5175 27.505 29.8475 14.635 30.1875 1.375 C36.601875 1.313125 43.01625 1.25125 49.625 1.1875 C51.63134521 1.16018799 53.63769043 1.13287598 55.70483398 1.10473633 C57.32274781 1.09596179 58.94066835 1.08832015 60.55859375 1.08203125 C61.78503601 1.0590094 61.78503601 1.0590094 63.03625488 1.03552246 C69.52139534 1.03262343 76.06012268 1.94451523 81.30859375 6.0234375 C81.74300781 6.59320313 82.17742187 7.16296875 82.625 7.75 C83.07746094 8.31460938 83.52992188 8.87921875 83.99609375 9.4609375 C88.47084429 16.64988099 88.38005165 25.23889688 86.5 33.3359375 C84.48456249 38.9287766 82.16043737 42.12736743 77.1875 45.375 C73.67877833 47.01983733 70.97097317 47.617742 67.10546875 47.5703125 C65.84512817 47.56281982 65.84512817 47.56281982 64.55932617 47.55517578 C63.50849854 47.53696777 62.4576709 47.51875977 61.375 47.5 C58.013125 47.45875 54.65125 47.4175 51.1875 47.375 C51.1875 56.615 51.1875 65.855 51.1875 75.375 C44.2575 75.375 37.3275 75.375 30.1875 75.375 C29.8575 71.085 29.5275 66.795 29.1875 62.375 C28.6925 63.24125 28.1975 64.1075 27.6875 65 C24.1742569 70.22038236 19.44767581 73.50265144 13.625 75.75 C4.42167639 77.52894618 -9.51220874 78.41884892 -17.75390625 73.12890625 C-19.4375 71.75 -19.4375 71.75 -21.8125 69.375 C-21.4825 71.355 -21.1525 73.335 -20.8125 75.375 C-28.0725 75.375 -35.3325 75.375 -42.8125 75.375 C-43.8025 71.415 -44.7925 67.455 -45.8125 63.375 C-53.7325 63.375 -61.6525 63.375 -69.8125 63.375 C-70.4725 67.005 -71.1325 70.635 -71.8125 74.375 C-72.8125 75.375 -72.8125 75.375 -74.85375977 75.48852539 C-75.72830811 75.48328857 -76.60285645 75.47805176 -77.50390625 75.47265625 C-78.44814453 75.46943359 -79.39238281 75.46621094 -80.36523438 75.46289062 C-81.35845703 75.45451172 -82.35167969 75.44613281 -83.375 75.4375 C-84.37208984 75.43298828 -85.36917969 75.42847656 -86.39648438 75.42382812 C-88.86854849 75.41200007 -91.34049518 75.39551849 -93.8125 75.375 C-85.62212054 50.65868172 -77.27539904 25.99930624 -68.8125 1.375 C-61.2225 1.375 -53.6325 1.375 -45.8125 1.375 C-43.35221823 7.52570443 -40.95219658 13.61600099 -38.796875 19.8671875 C-38.53618225 20.6204129 -38.2754895 21.37363831 -38.00689697 22.14968872 C-37.46450879 23.72041995 -36.92347904 25.2916209 -36.38378906 26.86328125 C-35.5563645 29.26783015 -34.71969326 31.66904088 -33.8828125 34.0703125 C-33.35359905 35.60657542 -32.82493315 37.14302709 -32.296875 38.6796875 C-31.9219693 39.75003738 -31.9219693 39.75003738 -31.53948975 40.8420105 C-30.38099015 44.24684153 -29.8125 46.73115448 -29.8125 50.375 C-19.4175 49.88 -19.4175 49.88 -8.8125 49.375 C-7.8225 52.345 -6.8325 55.315 -5.8125 58.375 C-3.02278993 60.86311979 -1.44883076 61.31006829 2.25 61.6875 C5.11482404 61.38273148 6.8067629 60.96215807 9.1875 59.375 C10.58685013 56.57629973 10.44015405 54.47001208 10.1875 51.375 C8.03946016 48.59224408 5.9019898 47.73898982 2.58203125 46.76171875 C1.68033203 46.48263672 0.77863281 46.20355469 -0.15039062 45.91601562 C-2.02899358 45.35333605 -3.90918138 44.79591708 -5.79101562 44.24414062 C-14.58803279 41.50326729 -21.49950256 37.47789002 -26 29.1875 C-27.59593447 23.66311146 -27.61602256 18.4882029 -25.25 13.1875 C-19.7717193 3.50406016 -10.69341713 -0.19494094 0 0 Z " fill="#FCFCFD" transform="translate(184.8125,223.625)"/>
<path d="M0 0 C0 6.93 0 13.86 0 21 C3.3 21 6.6 21 10 21 C10 23.97 10 26.94 10 30 C6.7 30 3.4 30 0 30 C0.11804905 35.94496559 0.24228286 41.88975706 0.37231445 47.83447266 C0.41569395 49.85787416 0.45736678 51.88131299 0.49731445 53.90478516 C0.55494408 56.80903384 0.6186594 59.71309411 0.68359375 62.6171875 C0.70030624 63.52556366 0.71701874 64.43393982 0.73423767 65.36984253 C0.7641555 66.63092331 0.7641555 66.63092331 0.79467773 67.91748047 C0.81799416 69.03000687 0.81799416 69.03000687 0.84178162 70.16500854 C0.89473496 72.09674104 0.89473496 72.09674104 2 74 C3.89533342 74.46523063 3.89533342 74.46523063 6.0625 74.625 C8.0115625 74.810625 8.0115625 74.810625 10 75 C10.02689216 76.47906892 10.04634621 77.95827483 10.0625 79.4375 C10.07410156 80.26121094 10.08570313 81.08492188 10.09765625 81.93359375 C10 84 10 84 9 85 C4.61733856 85.52263424 -0.01751008 86.02371348 -4.02734375 83.953125 C-6.14653564 82.19144959 -7.76317924 80.47364152 -9 78 C-9.08991092 76.45772144 -9.11756961 74.91159105 -9.11352539 73.36669922 C-9.11344986 72.40585419 -9.11337433 71.44500916 -9.11329651 70.45504761 C-9.10813522 69.41542877 -9.10297394 68.37580994 -9.09765625 67.3046875 C-9.0962413 66.24210724 -9.09482635 65.17952698 -9.09336853 64.08474731 C-9.08775834 60.68146991 -9.07520409 57.27825762 -9.0625 53.875 C-9.05748631 51.57161553 -9.05292318 49.26823003 -9.04882812 46.96484375 C-9.03778559 41.30987064 -9.02051409 35.65494637 -9 30 C-15.27 30 -21.54 30 -28 30 C-26.68 32.64 -25.36 35.28 -24 38 C-23 42 -23 42 -23 56 C-36.53 56 -50.06 56 -64 56 C-61.28152952 67.35618715 -61.28152952 67.35618715 -54.25 75.3125 C-49.48834414 76.7674504 -45.38486228 76.45274344 -40.75 74.9375 C-37.10501742 72.36944409 -35.95826592 69.98906021 -34 66 C-33.67 65.34 -33.34 64.68 -33 64 C-29.7 64.33 -26.4 64.66 -23 65 C-24.10922656 71.70256047 -26.89347309 77.79484575 -32.4375 81.9375 C-39.02711207 86.02955032 -45.35060693 86.82033881 -53 86 C-60.5484215 84.19177684 -65.77431816 79.3863246 -70 73 C-73.19894953 66.31529857 -73.48772255 60.40868995 -73.4375 53.0625 C-73.45748047 52.02931641 -73.47746094 50.99613281 -73.49804688 49.93164062 C-73.49257603 41.29317521 -71.55658145 34.22893446 -65.6875 27.6875 C-65.15511719 27.07261719 -64.62273437 26.45773438 -64.07421875 25.82421875 C-57.56158493 20.09653515 -52.67732401 19.4589181 -44.25390625 19.828125 C-43.24279282 19.85598083 -42.23167938 19.88383667 -41.18992615 19.91253662 C-37.97982663 20.0054512 -34.77158468 20.12728626 -31.5625 20.25 C-29.37831428 20.31832158 -27.19406841 20.38474836 -25.00976562 20.44921875 C-19.67228535 20.61088144 -14.33603089 20.79625898 -9 21 C-9.03915527 19.88560547 -9.07831055 18.77121094 -9.11865234 17.62304688 C-9.15031221 16.15496701 -9.18102439 14.68686649 -9.2109375 13.21875 C-9.23921631 12.48495117 -9.26749512 11.75115234 -9.29663086 10.99511719 C-9.3461173 7.76200325 -9.37421635 5.55085043 -7.52587891 2.83007812 C-5.12700821 1.15154646 -2.97774054 0 0 0 Z " fill="#F8F9FC" transform="translate(410,214)"/>
<path d="M0 0 C5.00633416 1.67661269 7.31240998 3.88604446 10.08081055 8.37109375 C12.72542371 13.79302413 12.50453366 19.01024881 12.390625 24.9375 C12.38496521 26.05817871 12.37930542 27.17885742 12.37347412 28.33349609 C12.35120292 31.88944417 12.30102177 35.44435989 12.25 39 C12.22992313 41.4205583 12.21167445 43.84113249 12.1953125 46.26171875 C12.15136847 52.17482743 12.08454874 58.08733993 12 64 C9.03 64 6.06 64 3 64 C2.98541748 62.63794434 2.97083496 61.27588867 2.95581055 59.87255859 C2.89772695 54.80686527 2.82049409 49.74161175 2.73754883 44.67626953 C2.7043469 42.48623812 2.6763003 40.29612211 2.65356445 38.10595703 C2.61993191 34.9530847 2.56761052 31.80098427 2.51171875 28.6484375 C2.50532883 27.67321136 2.4989389 26.69798523 2.49235535 25.69320679 C2.3784419 20.39581135 1.97456886 16.57562074 -1 12 C-3.93435426 9.60904468 -7.2517481 9.57361214 -10.97265625 9.69140625 C-14.4735718 10.22430091 -16.40917311 11.65018026 -19 14 C-22.10586761 19.73665474 -22.46614411 24.63911098 -22.51171875 31.08984375 C-22.52966995 32.03436905 -22.54762115 32.97889435 -22.56611633 33.95204163 C-22.61998156 36.94715 -22.65403858 39.94210119 -22.6875 42.9375 C-22.72069407 44.9772353 -22.75518565 47.01694992 -22.79101562 49.05664062 C-22.87569435 54.03764657 -22.94261872 59.01860783 -23 64 C-26.3 64 -29.6 64 -33 64 C-33 43.21 -33 22.42 -33 1 C-30.03 1 -27.06 1 -24 1 C-23.67 2.98 -23.34 4.96 -23 7 C-22.16855469 6.36771484 -22.16855469 6.36771484 -21.3203125 5.72265625 C-20.23363281 4.90087891 -20.23363281 4.90087891 -19.125 4.0625 C-18.40570313 3.51722656 -17.68640625 2.97195312 -16.9453125 2.41015625 C-11.88635483 -1.25708014 -6.02023997 -0.60554461 0 0 Z " fill="#F7F9FB" transform="translate(313,234)"/>
<path d="M0 0 C3.38795887 2.88972962 5.70953643 5.56610928 7.125 9.8125 C7.125 12.1225 7.125 14.4325 7.125 16.8125 C-2.775 16.8125 -12.675 16.8125 -22.875 16.8125 C-21.57065217 5.07336957 -21.57065217 5.07336957 -15.75 -0.0625 C-10.56528119 -2.09130301 -5.15297013 -2.12840071 0 0 Z " fill="url(#defaultGradient)" transform="translate(369.875,244.1875)"/>
<path d="M0 0 C10.08839779 -0.60773481 10.08839779 -0.60773481 14.1875 2.125 C16.33797846 5.53610376 16.74158034 7.04490483 16 11 C14.20006226 13.69990662 12.916227 15.5418865 10 17 C8.29297265 17.06996014 6.58331997 17.08440154 4.875 17.0625 C3.26625 17.041875 1.6575 17.02125 0 17 C0 11.39 0 5.78 0 0 Z " fill="url(#defaultGradient)" transform="translate(236,240)"/>
<path d="M0 0 C1.85783261 2.78674892 2.61251226 4.6523134 3.5078125 7.81640625 C3.77207031 8.74517578 4.03632813 9.67394531 4.30859375 10.63085938 C4.57800781 11.59830078 4.84742188 12.56574219 5.125 13.5625 C5.40214844 14.53380859 5.67929688 15.50511719 5.96484375 16.50585938 C8 23.71913485 8 23.71913485 8 26 C3.05 26 -1.9 26 -7 26 C-2.96127563 8.14350797 -2.96127563 8.14350797 0 0 Z " fill="url(#defaultGradient)" transform="translate(127,245)"/>
<path d="M0 0 C2.9375 2.0625 2.9375 2.0625 5 5 C5.06641554 8.85210127 4.87229157 10.99848005 2.3125 13.9375 C-0.76819895 15.35295627 -2.64720251 15.55879958 -6 15 C-8.89648251 12.40841039 -9.87307907 10.7773907 -10.5 6.9375 C-10 4 -10 4 -8.375 1.625 C-5.24988831 -0.51323431 -3.71837535 -0.6829669 0 0 Z " fill="#F9FAFC" transform="translate(269,282)"/>
</svg>
