<?xml version="1.0" encoding="UTF-8"?>
<svg version="1.1" xmlns="http://www.w3.org/2000/svg" width="480" height="480">
<defs>
    <linearGradient id="defaultGradient" x1="0%" y1="0%" x2="100%" y2="100%" gradientTransform="rotate(50)">
      <stop offset="0%" style="stop-color:#ffd700;stop-opacity:1" />
      <stop offset="50%" style="stop-color:#ffc340;stop-opacity:1" />
      <stop offset="100%" style="stop-color:#ffbb6e;stop-opacity:1" />
    </linearGradient>
  </defs>
<path d="M0 0 C0.8765625 -0.00773437 1.753125 -0.01546875 2.65625 -0.0234375 C9.03604961 0.87043552 14.81723509 4.49260778 20.4375 7.5 C21.18128906 7.89614502 21.92507813 8.29229004 22.69140625 8.70043945 C29.55952426 12.37531912 36.34475011 16.18931982 43.12060547 20.03076172 C47.92537174 22.74521309 52.74566678 25.43204084 57.5625 28.125 C64.79841445 32.17153217 72.02390285 36.23518872 79.23242188 40.33032227 C89.13845559 45.95587609 99.1104157 51.4419908 109.1394043 56.84521484 C115.52136198 60.28807851 121.84180077 63.81047156 128.12109375 67.4375 C132.03918469 69.68417411 135.98570889 71.87584225 139.9375 74.0625 C147.14173606 78.05378173 154.32680828 82.07818364 161.5 86.125 C162.44286865 86.65569092 163.3857373 87.18638184 164.35717773 87.7331543 C167.07754283 89.2700634 169.79071705 90.81864549 172.5 92.375 C173.41394531 92.89771484 174.32789063 93.42042969 175.26953125 93.95898438 C176.14996094 94.47267578 177.03039062 94.98636719 177.9375 95.515625 C179.11119141 96.1967334 179.11119141 96.1967334 180.30859375 96.89160156 C186.14332078 100.84122293 189.63978349 105.62713977 191.5 112.375 C191.68865039 115.13341957 191.78307685 117.78968663 191.77415466 120.54608154 C191.77939134 121.3526958 191.78462802 122.15931006 191.79002339 122.99036717 C191.80498733 125.68470947 191.80572774 128.37886124 191.80639648 131.07324219 C191.81402042 133.00861938 191.82244832 134.94399354 191.83161926 136.87936401 C191.85354868 142.13158463 191.86236115 147.38374704 191.86744571 152.63600826 C191.87109128 155.91965104 191.87733241 159.20327861 191.8844471 162.48691559 C191.90893671 173.94896615 191.92199233 185.41097149 191.92553711 196.87304688 C191.92917142 207.54651789 191.95906072 218.21970119 192.00094169 228.89308429 C192.03566665 238.06527016 192.05108594 247.23736079 192.05178314 256.40961194 C192.05257523 261.88396113 192.0612829 267.35801718 192.08978081 272.83229828 C192.11599887 277.98376441 192.1181456 283.13469514 192.10212517 288.28619766 C192.10031364 290.1719314 192.10697458 292.0576962 192.12294388 293.94336319 C192.27459377 313.02042214 192.27459377 313.02042214 186.5 320.375 C181.67997708 324.9368912 175.88176016 328.01398124 170.0625 331.125 C163.15795659 334.88470763 156.34536915 338.76490725 149.59790039 342.79980469 C144.93790977 345.57337099 140.20653862 348.19245019 135.43920898 350.77685547 C130.27284345 353.58597822 125.13872436 356.45322309 120 359.3125 C118.8277414 359.96439738 117.65545897 360.61625189 116.4831543 361.26806641 C114.66260975 362.28031671 112.84208387 363.2926004 111.02165222 364.30505371 C106.78255308 366.66254938 102.54205549 369.01751377 98.30078125 371.37109375 C83.65954756 379.49655744 69.04773484 387.66980986 54.47412109 395.91577148 C50.5318865 398.14538513 46.5880896 400.37222641 42.64404297 402.59863281 C40.48600998 403.81790972 38.3288276 405.038693 36.17236328 406.26074219 C32.82542016 408.15687689 29.47547826 410.04762047 26.125 411.9375 C24.58404663 412.81281372 24.58404663 412.81281372 23.01196289 413.70581055 C4.25255688 424.26327211 4.25255688 424.26327211 -4.5 422.375 C-9.20971095 420.4900165 -13.60632629 418.16818749 -18.04638672 415.72314453 C-20.72862111 414.2493835 -23.42731965 412.80905703 -26.12890625 411.37109375 C-36.67638827 405.73452211 -47.12215371 399.93311937 -57.48828125 393.97021484 C-64.36191164 390.01632225 -71.26714086 386.12149674 -78.1875 382.25 C-79.25436035 381.6530835 -80.3212207 381.05616699 -81.42041016 380.44116211 C-85.97606857 377.8948983 -90.53391768 375.35283122 -95.1015625 372.828125 C-104.69685239 367.52424579 -114.22568682 362.11008224 -123.73620605 356.65597534 C-132.63928229 351.55248986 -141.58344548 346.53115686 -150.5625 341.5625 C-152.78663281 340.32583457 -155.01059555 339.08886323 -157.234375 337.8515625 C-161.2131284 335.63830487 -165.20300302 333.44778349 -169.203125 331.2734375 C-170.90671437 330.32896212 -172.60987026 329.38370424 -174.3125 328.4375 C-175.06474854 328.03748779 -175.81699707 327.63747559 -176.59204102 327.2253418 C-183.44269177 323.37021973 -188.04350639 317.88849976 -190.5 310.375 C-190.6880544 307.65173179 -190.77440445 305.03245227 -190.76069641 302.31071472 C-190.76452196 301.50354376 -190.76834751 300.69637279 -190.77228898 299.8647421 C-190.78259984 297.16260995 -190.77863045 294.46069104 -190.7746582 291.75854492 C-190.77900579 289.82007145 -190.78418909 287.88159969 -190.79014587 285.94313049 C-190.80354349 280.67857517 -190.80411359 275.4140916 -190.80158257 270.14952254 C-190.80051317 265.75347417 -190.80539555 261.35744034 -190.810188 256.96139508 C-190.82128627 246.58842877 -190.82171907 236.21549867 -190.81567383 225.8425293 C-190.80963567 215.14582369 -190.82194036 204.44924967 -190.8432439 193.75256652 C-190.86086636 184.56599629 -190.86686015 175.37946791 -190.86360615 166.19288141 C-190.86179386 160.70748685 -190.86442399 155.22218611 -190.87832069 149.73680687 C-190.8909045 144.57642871 -190.88894959 139.4162554 -190.87590981 134.25588036 C-190.87354552 132.3644809 -190.87627339 130.47306701 -190.88453293 128.58168411 C-190.89501489 125.99429825 -190.8868882 123.40759783 -190.8742218 120.82023621 C-190.88159609 120.07654177 -190.88897037 119.33284734 -190.89656812 118.56661671 C-190.83156052 112.22910409 -189.44827645 106.78169443 -185.375 101.75 C-178.15362361 95.78451516 -170.05824507 91.37709616 -161.8125 87 C-159.66082931 85.84622438 -157.50978269 84.69128415 -155.359375 83.53515625 C-153.82700195 82.71168701 -153.82700195 82.71168701 -152.26367188 81.87158203 C-147.91242294 79.51529617 -143.62848208 77.05328576 -139.34375 74.578125 C-134.11165661 71.56448531 -128.83306981 68.63311115 -123.5625 65.6875 C-115.36353273 61.10340113 -107.17426785 56.50299999 -99 51.875 C-81.21198988 41.80841934 -63.36808852 31.84307602 -45.49023438 21.93701172 C-39.95480407 18.86579784 -34.43111528 15.77630356 -28.9296875 12.64453125 C-27.8876416 12.05164307 -26.8455957 11.45875488 -25.77197266 10.84790039 C-23.81919832 9.73457607 -21.86821938 8.61809403 -19.91943359 7.49780273 C-6.66879135 -0.05884228 -6.66879135 -0.05884228 0 0 Z " fill="url(#defaultGradient)" transform="translate(239.5,28.625)"/>
<path d="M0 0 C2.56618899 2.26825683 5.08252927 4.58068174 7.5859375 6.91796875 C8.400625 7.66691406 9.2153125 8.41585937 10.0546875 9.1875 C15.12579938 14.02591845 19.4890517 19.17063593 23.6484375 24.79296875 C24.12595459 25.43572754 24.60347168 26.07848633 25.09545898 26.74072266 C27.27929305 29.77123568 28.84055574 32.26226208 29.5859375 35.91796875 C20.36103332 41.82337461 10.85063217 47.16051764 1.27319336 52.46972656 C-6.70674847 56.91158953 -14.55641588 61.53403527 -22.30883789 66.36230469 C-23.07317139 66.8318457 -23.83750488 67.30138672 -24.625 67.78515625 C-25.28806152 68.19878418 -25.95112305 68.61241211 -26.63427734 69.03857422 C-28.4140625 69.91796875 -28.4140625 69.91796875 -31.4140625 69.91796875 C-32.95703125 68.23046875 -32.95703125 68.23046875 -34.6015625 65.91796875 C-45.37238404 51.57186407 -61.22339134 40.75203232 -79.3125 38.1640625 C-98.59006214 36.63448263 -117.39961195 38.93342519 -132.8515625 51.60546875 C-135.85973191 54.23456925 -138.64128717 57.04297129 -141.4140625 59.91796875 C-142.07792969 60.55089844 -142.74179688 61.18382812 -143.42578125 61.8359375 C-155.40853751 74.0341141 -159.91573969 91.65709767 -159.76831055 108.25415039 C-159.56332033 115.0796726 -158.45980884 121.39145816 -156.4140625 127.91796875 C-156.08535156 128.995625 -155.75664062 130.07328125 -155.41796875 131.18359375 C-149.52931291 148.38091393 -136.38953047 161.69740844 -120.4140625 169.91796875 C-101.67628853 178.14659604 -82.29374041 178.05055517 -63.2890625 170.66796875 C-49.44920361 164.53108395 -38.97606997 155.37812597 -30.4140625 142.91796875 C-26.08559225 144.23839603 -22.31358456 145.92023267 -18.36328125 148.12109375 C-17.51111778 148.59301903 -17.51111778 148.59301903 -16.64173889 149.07447815 C-14.79210462 150.10050997 -12.94668489 151.13384825 -11.1015625 152.16796875 C-9.81755444 152.88401553 -8.53337258 153.59975074 -7.24902344 154.31518555 C-5.27516043 155.41522554 -3.30173701 156.51601822 -1.32962036 157.6191864 C2.50775034 159.76508721 6.35441459 161.89243761 10.21379089 163.99850464 C13.09129896 165.56952226 15.96289826 167.15129731 18.8359375 168.73046875 C19.90626221 169.31022461 20.97658691 169.88998047 22.0793457 170.48730469 C23.05605225 171.02774414 24.03275879 171.56818359 25.0390625 172.125 C25.89661133 172.59397705 26.75416016 173.0629541 27.63769531 173.54614258 C29.5859375 174.91796875 29.5859375 174.91796875 30.5859375 177.91796875 C29.28382365 180.35142742 27.95293421 182.52757589 26.3984375 184.79296875 C25.94863525 185.45699707 25.49883301 186.12102539 25.03540039 186.80517578 C20.56209762 193.23674514 15.44719521 198.92044278 9.96728516 204.50146484 C8.72852983 205.77174734 7.52030733 207.07163721 6.31640625 208.375 C-7.92130388 223.45799162 -26.98383616 233.34788113 -46.4140625 239.91796875 C-47.94160156 240.44583984 -47.94160156 240.44583984 -49.5 240.984375 C-54.72454288 242.65818968 -60.04675482 243.80027773 -65.4140625 244.91796875 C-66.40664063 245.12808594 -67.39921875 245.33820313 -68.421875 245.5546875 C-103.85904808 251.81614289 -138.74673075 242.94840928 -168.7109375 223.8125 C-175.03948487 219.33424826 -180.79174137 214.2448356 -186.4140625 208.91796875 C-187.74244141 207.68626953 -187.74244141 207.68626953 -189.09765625 206.4296875 C-210.25088807 186.17659321 -222.61111063 160.32982401 -228.4140625 131.91796875 C-228.66285156 130.72558594 -228.91164063 129.53320312 -229.16796875 128.3046875 C-235.33904376 92.96125792 -226.06060726 55.33184909 -205.5390625 26.10546875 C-201.292143 20.54402654 -196.60270116 15.39733467 -191.77246094 10.34375 C-190.50741608 9.0159531 -189.2607374 7.67072467 -188.015625 6.32421875 C-138.78538556 -45.35935488 -52.89328185 -45.6183159 0 0 Z " fill="#FCFDFD" transform="translate(330.4140625,133.08203125)"/>
<path d="M0 0 C1.55183941 2.1067036 2.87202154 4.12944747 4.1875 6.375 C21.32810476 34.16104516 49.17081233 56.47135176 81 65 C81.82209961 65.22413574 82.64419922 65.44827148 83.49121094 65.67919922 C106.22165534 71.65431249 129.01831787 71.66223372 152 67 C153.14597656 66.77183594 154.29195312 66.54367187 155.47265625 66.30859375 C162.67387826 64.68251136 169.30628989 62.0856959 176 59 C176.60859863 58.72027344 177.21719727 58.44054687 177.84423828 58.15234375 C193.4152455 50.91329436 206.7257974 42.00184603 219 30 C219.72703125 29.32324219 220.4540625 28.64648438 221.203125 27.94921875 C229.46202849 20.09675736 235.85418907 10.54408286 242 1 C246.21647875 1.60242329 249.28752279 3.0604413 252.98828125 5.140625 C253.56035812 5.45939102 254.132435 5.77815704 254.72184753 6.10658264 C256.58884059 7.14836405 258.45056499 8.19921 260.3125 9.25 C262.26211987 10.34052855 264.21308974 11.42861402 266.16415405 12.51655579 C267.48865595 13.25528507 268.81273 13.99478197 270.13638306 14.73503113 C277.54784144 18.87652721 285.02039406 22.90284637 292.49731445 26.92480469 C293.87536255 27.66778809 293.87536255 27.66778809 295.28125 28.42578125 C296.07595703 28.85286377 296.87066406 29.27994629 297.68945312 29.7199707 C299.36026384 30.64558996 300.99642029 31.6347048 302.60742188 32.66088867 C304.97933774 34.2442 304.97933774 34.2442 308 34 C308.33 33.01 308.66 32.02 309 31 C309.66 31 310.32 31 311 31 C309.30518035 37.47112958 306.2568014 41.51897408 300.75 45.1328125 C299.50646582 45.80890549 298.25597283 46.47230463 297 47.125 C295.55792526 47.90501537 294.11655345 48.68633131 292.67578125 49.46875 C291.91346191 49.87867188 291.15114258 50.28859375 290.36572266 50.7109375 C286.26594486 52.94487215 282.23213431 55.29320558 278.1875 57.625 C267.59515631 63.6998901 256.91815517 69.62017878 246.23828125 75.5390625 C240.83832456 78.53215837 235.45058509 81.54581381 230.07299805 84.57885742 C223.88944046 88.06587475 217.69472075 91.5328602 211.5 95 C199.30998573 101.82438595 187.12821046 108.66255379 174.96972656 115.54296875 C171.02908278 117.77207326 167.08666548 119.99803032 163.14404297 122.22363281 C160.98600998 123.44290972 158.8288276 124.663693 156.67236328 125.88574219 C153.32542016 127.78187689 149.97547826 129.67262047 146.625 131.5625 C145.59769775 132.14604248 144.57039551 132.72958496 143.51196289 133.33081055 C124.75255688 143.88827211 124.75255688 143.88827211 116 142 C111.29028905 140.1150165 106.89367371 137.79318749 102.45361328 135.34814453 C99.77137889 133.8743835 97.07268035 132.43405703 94.37109375 130.99609375 C83.82361173 125.35952211 73.37784629 119.55811937 63.01171875 113.59521484 C56.13808836 109.64132225 49.23285914 105.74649674 42.3125 101.875 C41.24563965 101.2780835 40.1787793 100.68116699 39.07958984 100.06616211 C34.52393143 97.5198983 29.96608232 94.97783122 25.3984375 92.453125 C15.80314761 87.14924579 6.27431318 81.73508224 -3.23620605 76.28097534 C-12.13928229 71.17748986 -21.08344548 66.15615686 -30.0625 61.1875 C-32.28663281 59.95083457 -34.51059555 58.71386323 -36.734375 57.4765625 C-40.7131284 55.26330487 -44.70300302 53.07278349 -48.703125 50.8984375 C-50.40671437 49.95396212 -52.10987026 49.00870424 -53.8125 48.0625 C-54.56474854 47.66248779 -55.31699707 47.26247559 -56.09204102 46.8503418 C-62.20819534 43.40854885 -66.74907782 38.75276655 -69 32 C-68.34 32 -67.68 32 -67 32 C-66.34 32.66 -65.68 33.32 -65 34 C-47.97693938 24.55626107 -47.97693938 24.55626107 -31.125 14.8125 C-30.47063965 14.42682861 -29.8162793 14.04115723 -29.14208984 13.64379883 C-26.25523748 11.93896197 -23.37398848 10.225959 -20.50439453 8.4921875 C-17.90483759 6.92191394 -15.29665977 5.36675077 -12.6875 3.8125 C-11.88006348 3.31790283 -11.07262695 2.82330566 -10.24072266 2.3137207 C-9.48452637 1.86601318 -8.72833008 1.41830566 -7.94921875 0.95703125 C-6.94894653 0.35338745 -6.94894653 0.35338745 -5.9284668 -0.26245117 C-3.49232636 -1.19416155 -2.38498359 -1.00891245 0 0 Z " fill="url(#defaultGradient)" transform="translate(119,309)"/>
<path d="M0 0 C5.07767908 4.52766119 10.22013739 9.33020609 14 15 C14.0625 17.4375 14.0625 17.4375 13 20 C10.77019928 21.59193597 8.44418058 22.73426363 6 24 C5.505 24.99 5.505 24.99 5 26 C3.35767228 26.72455635 1.68375165 27.37774395 0 28 C-5.99049156 30.4215383 -11.37904488 33.43344644 -16.90795898 36.76123047 C-23.39547727 40.66510917 -29.96489622 44.41044685 -36.5625 48.125 C-37.59286377 48.70572266 -38.62322754 49.28644531 -39.68481445 49.88476562 C-42.12249758 51.25778244 -44.56085706 52.62957871 -47 54 C-43.40593846 57.05294818 -39.81500486 59.2849689 -35.625 61.4375 C-28.9118612 64.93343076 -22.32446992 68.62549336 -15.75 72.375 C-5.61449472 78.14391149 4.64063615 83.64504296 15 89 C15 94.92598332 11.7658607 97.64616105 8 102 C7.34773438 102.76054687 6.69546875 103.52109375 6.0234375 104.3046875 C-5.71372757 117.00895981 -23.08267997 124.46751649 -40.2421875 125.22265625 C-58.66213162 125.7337753 -75.79707611 121.25358385 -89.5625 108.5 C-91.42122181 106.70395245 -93.20978637 104.86685886 -95 103 C-96.04800781 101.92878906 -96.04800781 101.92878906 -97.1171875 100.8359375 C-110.26994122 86.66709122 -114.70422315 68.24828694 -114.23828125 49.421875 C-113.44640464 31.15019984 -104.86381632 16.4176724 -92 4 C-91.29359375 3.26265625 -90.5871875 2.5253125 -89.859375 1.765625 C-65.7944461 -21.9319004 -25.63737011 -19.73473011 0 0 Z " fill="url(#defaultGradient)" transform="translate(284,185)"/>
<path d="M0 0 C0.89460938 0.44988281 1.78921875 0.89976562 2.7109375 1.36328125 C3.83242187 1.92660156 4.95390625 2.48992187 6.109375 3.0703125 C7.43679525 3.76853623 8.76218582 4.4706271 10.0859375 5.17578125 C10.81635254 5.5632251 11.54676758 5.95066895 12.29931641 6.34985352 C19.60967009 10.25726871 26.80533477 14.36269416 34.00756836 18.46484375 C43.13265841 23.64384575 52.39103611 28.54564261 61.7109375 33.36328125 C61.7109375 39.28926457 58.4767982 42.0094423 54.7109375 46.36328125 C54.05867188 47.12382812 53.40640625 47.884375 52.734375 48.66796875 C40.99720993 61.37224106 23.62825753 68.83079774 6.46875 69.5859375 C-11.95373823 70.09712714 -29.08290305 65.61513753 -42.8515625 52.86328125 C-55.46760862 40.71155248 -55.46760862 40.71155248 -58.2890625 34.36328125 C-58.17407227 32.42138672 -58.17407227 32.42138672 -57.2890625 30.36328125 C-55.07788086 28.75439453 -55.07788086 28.75439453 -52.12890625 27.18359375 C-50.4893396 26.29450317 -50.4893396 26.29450317 -48.81665039 25.38745117 C-48.23126495 25.07778412 -47.64587952 24.76811707 -47.04275513 24.44906616 C-43.96264412 22.8196552 -40.90518249 21.14853 -37.84375 19.484375 C-37.21688797 19.14531631 -36.59002594 18.80625763 -35.94416809 18.45692444 C-28.46219879 14.399132 -21.13896821 10.07723295 -13.80639648 5.75634766 C-12.40756226 4.93336182 -12.40756226 4.93336182 -10.98046875 4.09375 C-10.16779541 3.61317139 -9.35512207 3.13259277 -8.51782227 2.63745117 C-2.62650777 -0.73058151 -2.62650777 -0.73058151 0 0 Z " fill="url(#defaultGradient)" transform="translate(237.2890625,240.63671875)"/>
<path d="M0 0 C6.6 0 13.2 0 20 0 C20 6.6 20 13.2 20 20 C26.6 20 33.2 20 40 20 C40 26.6 40 33.2 40 40 C33.4 40 26.8 40 20 40 C20 46.6 20 53.2 20 60 C13.4 60 6.8 60 0 60 C0 53.4 0 46.8 0 40 C-6.6 40 -13.2 40 -20 40 C-20 33.4 -20 26.8 -20 20 C-13.4 20 -6.8 20 0 20 C0 13.4 0 6.8 0 0 Z " fill="#FAFCFD" transform="translate(380,210)"/>
<path d="M0 0 C6.6 0 13.2 0 20 0 C20 6.6 20 13.2 20 20 C26.6 20 33.2 20 40 20 C40 26.6 40 33.2 40 40 C33.4 40 26.8 40 20 40 C20 46.6 20 53.2 20 60 C13.4 60 6.8 60 0 60 C0 53.4 0 46.8 0 40 C-6.6 40 -13.2 40 -20 40 C-20 33.4 -20 26.8 -20 20 C-13.4 20 -6.8 20 0 20 C0 13.4 0 6.8 0 0 Z " fill="#FAFCFD" transform="translate(310,210)"/>
</svg>
