<?xml version="1.0" encoding="UTF-8"?>
<svg version="1.1" xmlns="http://www.w3.org/2000/svg" width="600" height="600">
<defs>
    <linearGradient id="defaultGradient" x1="0%" y1="0%" x2="100%" y2="100%" gradientTransform="rotate(50)">
      <stop offset="0%" style="stop-color:#ffd700;stop-opacity:1" />
      <stop offset="50%" style="stop-color:#ffc340;stop-opacity:1" />
      <stop offset="100%" style="stop-color:#ffbb6e;stop-opacity:1" />
    </linearGradient>
  </defs>
<path d="M0 0 C0.92216309 0.53447754 1.84432617 1.06895508 2.79443359 1.61962891 C7.73756447 4.48903953 12.67132049 7.37413738 17.6015625 10.265625 C24.33166352 14.20489131 31.10015897 18.07593164 37.875 21.9375 C50.20060938 28.96540456 62.49722505 36.04240688 74.78222656 43.14111328 C80.18670641 46.26324603 85.59344718 49.38145881 91 52.5 C97.47766885 56.23636915 103.95489983 59.97348347 110.4296875 63.71484375 C121.05449922 69.85235254 131.68948839 75.97092254 142.34823608 82.04925537 C152.7730466 87.99426763 163.17569084 93.97491111 173.52441406 100.05175781 C178.11400768 102.745414 182.71318362 105.41194049 187.36328125 108 C202.74061632 116.59213559 216.00269795 125.9947289 221.18492126 143.70217705 C223.34659856 153.47908283 222.55215241 163.93996715 222.51757812 173.88696289 C222.52300434 176.50977465 222.53012979 179.13258337 222.53881836 181.75538635 C222.55652178 188.11512671 222.55280055 194.47467728 222.5411678 200.8344248 C222.53210211 206.0066055 222.53092296 211.17873334 222.53526306 216.35091972 C222.53587599 217.08949049 222.53648893 217.82806126 222.53712043 218.58901296 C222.53839944 220.08980026 222.5396963 221.59058754 222.5410108 223.09137481 C222.55239242 237.1344279 222.53934056 251.17737622 222.51780933 265.22041213 C222.49993681 277.24928874 222.50304839 289.27801093 222.52148438 301.30688477 C222.54292753 315.30422248 222.55129791 329.30146859 222.53903532 343.29882044 C222.53776123 344.79351229 222.53650375 346.28820416 222.53526306 347.78289604 C222.53464596 348.51815421 222.53402886 349.25341237 222.53339306 350.01095109 C222.52995075 355.17268338 222.53574417 360.33435717 222.54518127 365.4960804 C222.55762106 372.45247318 222.54866772 379.40857061 222.52560425 386.36493492 C222.52033082 388.91257877 222.5218074 391.46024722 222.53065491 394.00788116 C222.54164742 397.4956166 222.52780086 400.98243069 222.50793457 404.47010803 C222.51685746 405.46906052 222.52578034 406.46801301 222.53497362 407.49723679 C222.39267857 420.44888981 217.29948059 432.36691209 208.6875 442 C203.08898066 447.26365464 196.3171534 450.76951904 189.65673828 454.50292969 C185.70028383 456.73238923 181.77385966 459.01308895 177.84375 461.28857422 C174.501277 463.22293099 171.15541327 465.15129945 167.80859375 467.078125 C163.38223153 469.62696191 158.9576221 472.17878353 154.53515625 474.734375 C142.78492257 481.52337901 131.01820436 488.28257487 119.23205566 495.00897217 C107.53932383 501.68285605 95.87488668 508.40522282 84.21777344 515.14111328 C78.81329355 518.26324605 73.40652588 521.38141204 68 524.5 C65.8333225 525.74998122 63.66665583 526.99998121 61.5 528.25 C57.16666667 530.75 52.83333333 533.25 48.5 535.75 C47.4272583 536.36891113 46.3545166 536.98782227 45.24926758 537.62548828 C43.0851182 538.87399222 40.92089307 540.12236487 38.7565918 541.37060547 C33.30077827 544.51741658 27.84634816 547.66658171 22.39453125 550.8203125 C18.05048786 553.33315376 13.70260461 555.83914233 9.3515625 558.33984375 C5.12520005 560.76906311 0.91394431 563.22202479 -3.2890625 565.69140625 C-20.37325432 575.66505046 -35.19974863 582.12926684 -55.35546875 578.375 C-69.97197302 573.95651558 -83.48614463 564.44674864 -96.55859375 556.7734375 C-102.97976702 553.00569811 -109.42400765 549.27890119 -115.875 545.5625 C-117.49619751 544.62833252 -117.49619751 544.62833252 -119.15014648 543.67529297 C-121.34221359 542.41231067 -123.5343523 541.14945265 -125.7265625 539.88671875 C-128.9647516 538.0203162 -132.20139438 536.15126237 -135.4375 534.28125 C-147.24117161 527.46178895 -159.06279326 520.67532854 -170.90472412 513.92263794 C-178.96263303 509.32605725 -186.99412773 504.68667368 -195 500 C-203.55549584 494.99254795 -212.14032306 490.0385945 -220.75 485.125 C-221.33259583 484.79245209 -221.91519165 484.45990417 -222.51544189 484.11727905 C-227.87984456 481.05586069 -233.24622578 477.99792085 -238.61425781 474.94287109 C-245.65177349 470.93732928 -252.68315235 466.92150721 -259.70507812 462.88867188 C-261.86806305 461.64883404 -264.03336086 460.41302077 -266.20117188 459.18164062 C-283.08867603 449.58186697 -298.78573607 440.53509637 -305 421 C-305.75889492 417.68996383 -306.12668396 414.62866324 -306.13422108 411.23561859 C-306.13867892 410.30013042 -306.14313676 409.36464225 -306.14772969 408.40080595 C-306.14754533 407.38146357 -306.14736097 406.36212119 -306.14717102 405.31188965 C-306.15084771 404.22239785 -306.1545244 403.13290605 -306.1583125 402.01039934 C-306.16934241 398.35263126 -306.17319204 394.69489159 -306.17700195 391.03710938 C-306.18326717 388.41710317 -306.18991403 385.79709785 -306.19691467 383.17709351 C-306.21665303 375.30956571 -306.22674243 367.44203667 -306.23564246 359.57449031 C-306.24003009 355.86533827 -306.24539571 352.15618766 -306.25063133 348.44703674 C-306.26764177 336.10946703 -306.28213425 323.77189818 -306.28938007 311.43431854 C-306.29128983 308.23453266 -306.29321018 305.03474679 -306.29516602 301.83496094 C-306.29589163 300.64209011 -306.29589163 300.64209011 -306.2966319 299.42512089 C-306.30492591 286.55285583 -306.33025301 273.68068389 -306.36274669 260.80845946 C-306.39586814 247.57918136 -306.41383346 234.3499505 -306.41702431 221.12063074 C-306.41918482 213.69841898 -306.42786581 206.27634298 -306.45348549 198.85417175 C-306.47526221 192.5308853 -306.48320889 186.20776758 -306.47351871 179.88444787 C-306.46899386 176.66247824 -306.47296479 173.44092655 -306.49028015 170.21899033 C-306.57792349 152.93816988 -306.52302589 138.89178496 -295 125 C-294.26716797 124.08154297 -294.26716797 124.08154297 -293.51953125 123.14453125 C-288.52949694 117.53876006 -281.91545421 114.09160136 -275.4765625 110.41503906 C-272.69670563 108.82670601 -269.92626634 107.222619 -267.15625 105.6171875 C-261.58559956 102.39209664 -256.0073681 99.18034829 -250.42724609 95.97167969 C-244.94844203 92.81974768 -239.47438887 89.65959203 -234 86.5 C-231.83335774 85.2499577 -229.66669103 83.99995776 -227.5 82.75 C-226.4275 82.13125 -225.355 81.5125 -224.25 80.875 C-221 79 -217.75 77.125 -214.5 75.25 C-213.42766113 74.63133057 -212.35532227 74.01266113 -211.25048828 73.37524414 C-209.08223736 72.1243552 -206.91394303 70.87354148 -204.74560547 69.62280273 C-199.35282085 66.51201665 -193.96077907 63.39995762 -188.5703125 60.28515625 C-176.80793427 53.49038436 -165.02984493 46.72406844 -153.23205566 39.99102783 C-140.46351532 32.70310258 -127.72958227 25.35572244 -115 18 C-108.40969986 14.1928738 -101.81842732 10.38748501 -95.22265625 6.58984375 C-91.18085798 4.26206386 -87.14767613 1.92039781 -83.12109375 -0.43359375 C-51.95516841 -18.57836285 -31.390695 -18.24061384 0 0 Z " fill="url(#defaultGradient)" transform="translate(342,18)"/>
<path d="M0 0 C4.65646 3.10430667 5.47516497 7.3176897 6.6313076 12.67784953 C8.10036594 21.93047998 7.55002973 31.55066188 7.51757812 40.88696289 C7.52300434 43.50977465 7.53012979 46.13258337 7.53881836 48.75538635 C7.55652178 55.11512671 7.55280055 61.47467728 7.5411678 67.8344248 C7.53210211 73.0066055 7.53092296 78.17873334 7.53526306 83.35091972 C7.53587599 84.08949049 7.53648893 84.82806126 7.53712043 85.58901296 C7.53839944 87.08980026 7.5396963 88.59058754 7.5410108 90.09137481 C7.55239242 104.1344279 7.53934056 118.17737622 7.51780933 132.22041213 C7.49993681 144.24928874 7.50304839 156.27801093 7.52148438 168.30688477 C7.54292753 182.30422248 7.55129791 196.30146859 7.53903532 210.29882044 C7.53776123 211.79351229 7.53650375 213.28820416 7.53526306 214.78289604 C7.53464596 215.51815421 7.53402886 216.25341237 7.53339306 217.01095109 C7.52995075 222.17268338 7.53574417 227.33435717 7.54518127 232.4960804 C7.55762106 239.45247318 7.54866772 246.40857061 7.52560425 253.36493492 C7.52033082 255.91257877 7.5218074 258.46024722 7.53065491 261.00788116 C7.54164742 264.4956166 7.52780086 267.98243069 7.50793457 271.47010803 C7.51685746 272.46906052 7.52578034 273.46801301 7.53497362 274.49723679 C7.39267857 287.44888981 2.29948059 299.36691209 -6.3125 309 C-11.91101934 314.26365464 -18.6828466 317.76951904 -25.34326172 321.50292969 C-29.29971617 323.73238923 -33.22614034 326.01308895 -37.15625 328.28857422 C-40.498723 330.22293099 -43.84458673 332.15129945 -47.19140625 334.078125 C-51.61776847 336.62696191 -56.0423779 339.17878353 -60.46484375 341.734375 C-72.21507743 348.52337901 -83.98179564 355.28257487 -95.76794434 362.00897217 C-107.46067617 368.68285605 -119.12511332 375.40522282 -130.78222656 382.14111328 C-136.18670645 385.26324605 -141.59347412 388.38141204 -147 391.5 C-149.1666775 392.74998122 -151.33334417 393.99998121 -153.5 395.25 C-157.83333333 397.75 -162.16666667 400.25 -166.5 402.75 C-167.5727417 403.36891113 -168.6454834 403.98782227 -169.75073242 404.62548828 C-171.9148818 405.87399222 -174.07910693 407.12236487 -176.2434082 408.37060547 C-181.69922173 411.51741658 -187.15365184 414.66658171 -192.60546875 417.8203125 C-196.94951214 420.33315376 -201.29739539 422.83914233 -205.6484375 425.33984375 C-209.87479995 427.76906311 -214.08605569 430.22202479 -218.2890625 432.69140625 C-235.37325432 442.66505046 -250.19974863 449.12926684 -270.35546875 445.375 C-284.97197302 440.95651558 -298.48614463 431.44674864 -311.55859375 423.7734375 C-317.97976702 420.00569811 -324.42400765 416.27890119 -330.875 412.5625 C-331.95579834 411.93972168 -333.03659668 411.31694336 -334.15014648 410.67529297 C-336.34221359 409.41231067 -338.5343523 408.14945265 -340.7265625 406.88671875 C-343.9647516 405.0203162 -347.20139438 403.15126237 -350.4375 401.28125 C-362.24117161 394.46178895 -374.06279326 387.67532854 -385.90472412 380.92263794 C-393.96263303 376.32605725 -401.99412773 371.68667368 -410 367 C-418.55549584 361.99254795 -427.14032306 357.0385945 -435.75 352.125 C-436.33259583 351.79245209 -436.91519165 351.45990417 -437.51544189 351.11727905 C-442.87984456 348.05586069 -448.24622578 344.99792085 -453.61425781 341.94287109 C-460.65177349 337.93732928 -467.68315235 333.92150721 -474.70507812 329.88867188 C-476.86806305 328.64883404 -479.03336086 327.41302077 -481.20117188 326.18164062 C-494.90412268 318.39213989 -507.04136842 311.36511297 -516 298 C-511.34559302 293.90412186 -506.08218402 291.10970634 -500.6875 288.125 C-492.51545121 283.55660897 -484.38795577 278.92457843 -476.3125 274.1875 C-466.40846571 268.38434856 -456.45819669 262.66601586 -446.47583008 256.99902344 C-440.62385632 253.67225719 -434.80307302 250.30406567 -429.03125 246.83984375 C-427.93039062 246.18306641 -426.82953125 245.52628906 -425.6953125 244.84960938 C-423.61088656 243.60226647 -421.53242256 242.34488991 -419.4609375 241.07617188 C-418.07261719 240.24762695 -418.07261719 240.24762695 -416.65625 239.40234375 C-415.44678711 238.66745728 -415.44678711 238.66745728 -414.21289062 237.91772461 C-412 237 -412 237 -409.88696289 237.11035156 C-407.42587419 238.27068372 -406.60704711 239.54134493 -405.15234375 241.83203125 C-404.63478516 242.62528809 -404.11722656 243.41854492 -403.58398438 244.23583984 C-403.04064453 245.0861377 -402.49730469 245.93643555 -401.9375 246.8125 C-395.84158758 256.05150914 -389.20733254 263.79266746 -381.38671875 271.61328125 C-380.02338713 272.97661287 -378.66693633 274.34710383 -377.33203125 275.73828125 C-353.9000572 300.01356542 -320.8564976 315.10328714 -288 321 C-287.06800781 321.17587646 -286.13601563 321.35175293 -285.17578125 321.53295898 C-276.07373259 323.11293991 -267.08482952 323.44238307 -257.875 323.4375 C-257.09097809 323.43790283 -256.30695618 323.43830566 -255.49917603 323.4387207 C-226.2105701 323.35267919 -198.66833961 316.1132752 -173 302 C-171.98292969 301.45988281 -170.96585937 300.91976563 -169.91796875 300.36328125 C-156.24867264 292.8058257 -144.20595895 282.80214061 -133 272 C-132.28585937 271.33742188 -131.57171875 270.67484375 -130.8359375 269.9921875 C-120.21024744 259.87449855 -112.52653687 247.47483452 -105 235 C-105.72171387 234.72559082 -106.44342773 234.45118164 -107.18701172 234.16845703 C-109.91872532 233.03375982 -112.42636392 231.74600853 -115.0078125 230.3046875 C-115.98105469 229.76166992 -116.95429688 229.21865234 -117.95703125 228.65917969 C-119.00246094 228.07040039 -120.04789062 227.48162109 -121.125 226.875 C-122.76662109 225.95315918 -122.76662109 225.95315918 -124.44140625 225.01269531 C-137.08155974 217.87839756 -149.53730336 210.43877217 -162 203 C-165.33041233 201.01586254 -168.66383014 199.03693796 -172 197.0625 C-172.68191406 196.65547852 -173.36382812 196.24845703 -174.06640625 195.82910156 C-176.6952631 194.27456356 -179.09191723 192.96936092 -182 192 C-182.39058594 193.09828125 -182.39058594 193.09828125 -182.7890625 194.21875 C-184.0264232 197.06068812 -185.43511388 199.09420236 -187.375 201.5 C-187.96023438 202.2321875 -188.54546875 202.964375 -189.1484375 203.71875 C-189.75945312 204.4715625 -190.37046875 205.224375 -191 206 C-191.63421875 206.82886719 -192.2684375 207.65773438 -192.921875 208.51171875 C-205.08268321 223.07268648 -226.30051729 233.14912233 -245 236 C-258.67789644 237.0653787 -272.05487583 236.82300136 -285 232 C-286.0621875 231.61457031 -287.124375 231.22914063 -288.21875 230.83203125 C-310.16860635 222.26826154 -327.00151711 206.21980181 -337 185 C-345.78024173 164.75751471 -347.99288079 139.88027847 -340 119 C-335.89665736 109.13965816 -330.66799263 100.36300756 -324 92 C-323.36449219 91.1646875 -322.72898437 90.329375 -322.07421875 89.46875 C-309.88979077 74.96675662 -290.41047981 65.36928167 -272 62 C-267.13669653 61.60169034 -262.31475028 61.57910847 -257.4375 61.625 C-256.20064453 61.61339844 -254.96378906 61.60179687 -253.68945312 61.58984375 C-245.98017386 61.61430471 -239.29957266 62.52853306 -232 65 C-230.84628906 65.37640625 -229.69257813 65.7528125 -228.50390625 66.140625 C-210.35112999 72.98709041 -196.63774852 83.65824527 -185 99 C-183.67033599 100.66959551 -182.33805248 102.33711963 -181 104 C-164.54714368 94.86278872 -148.23021969 85.52756634 -132 76 C-127.73076724 73.4972566 -123.45949842 70.99801887 -119.1875 68.5 C-117.7478186 67.65501953 -117.7478186 67.65501953 -116.27905273 66.79296875 C-111.71815573 64.12558207 -107.13830078 61.51248108 -102.4921875 58.99609375 C-96.90323652 55.96884859 -91.41706805 52.7825575 -85.9375 49.5625 C-83.81669996 48.32111267 -81.69559573 47.08024491 -79.57421875 45.83984375 C-78.48931152 45.20546387 -77.4044043 44.57108398 -76.28662109 43.91748047 C-61.17265571 35.09969083 -45.9847569 26.40937989 -30.78710938 17.73687744 C-20.50026632 11.86649708 -10.23971863 5.95215172 0 0 Z " fill="url(#defaultGradient)" transform="translate(557,151)"/>
<path d="M0 0 C1.1908445 -0.0146228 1.1908445 -0.0146228 2.40574646 -0.02954102 C19.78610439 -0.19898873 36.65117969 -0.16400664 53.59375 4.23828125 C54.33512207 4.43083496 55.07649414 4.62338867 55.84033203 4.82177734 C60.51103886 6.08353227 65.04586325 7.5888886 69.59375 9.23828125 C71.43259766 9.89957031 71.43259766 9.89957031 73.30859375 10.57421875 C93.53667881 18.25791947 111.85941187 29.36374302 127.59375 44.23828125 C128.8610095 45.30504128 130.13176294 46.36766673 131.40625 47.42578125 C143.90924154 58.41935732 153.4088371 71.4609119 162.59375 85.23828125 C162.59375 86.22828125 162.59375 87.21828125 162.59375 88.23828125 C161.8817041 88.6444165 161.1696582 89.05055176 160.43603516 89.46899414 C146.25609954 97.55901818 132.08979638 105.67123227 117.95410156 113.83837891 C107.85320751 119.67205868 97.72785637 125.46252646 87.59375 131.23828125 C85.06343157 128.78923643 82.83201875 126.3487195 80.78125 123.48828125 C67.77641575 106.0301787 50.53347495 95.65689428 29.59375 90.23828125 C29.0066626 90.06393555 28.4195752 89.88958984 27.81469727 89.70996094 C6.23903313 85.12777086 -15.81190858 90.25612224 -34.40625 101.23828125 C-39.12100983 104.30732303 -43.64810392 107.42954104 -47.578125 111.47265625 C-49.40625 113.23828125 -49.40625 113.23828125 -51.40625 113.23828125 C-51.66148437 113.80933594 -51.91671875 114.38039063 -52.1796875 114.96875 C-53.54080763 117.48725573 -55.15643026 119.38838956 -57.03125 121.55078125 C-73.20315625 141.54513807 -76.76193151 165.6983997 -74.13818359 190.80322266 C-70.95908303 211.10539955 -57.59042899 231.9709507 -41.36889648 244.26538086 C-21.50670866 258.64777928 1.77520366 264.06653051 26.03466797 260.921875 C30.36817558 260.09853853 34.46686124 258.77456831 38.59375 257.23828125 C39.63273438 256.86445313 40.67171875 256.490625 41.7421875 256.10546875 C61.32150855 248.50526958 75.92558872 236.24080341 86.59375 218.23828125 C89.82495296 218.89234669 92.31369243 220.05812603 95.171875 221.6875 C96.07268799 222.19845215 96.97350098 222.7094043 97.90161133 223.23583984 C98.87251709 223.79352051 99.84342285 224.35120117 100.84375 224.92578125 C102.37261841 225.79710693 102.37261841 225.79710693 103.93237305 226.68603516 C113.10082459 231.92414751 122.21946199 237.24749924 131.33203125 242.58203125 C138.23649229 246.62042693 145.16363342 250.61913671 152.09375 254.61328125 C152.67516754 254.94841736 153.25658508 255.28355347 153.85562134 255.62884521 C157.1012013 257.49946152 160.34725445 259.36925448 163.59375 261.23828125 C150.27972053 295.28420704 113.73897758 321.84097752 81.59375 336.23828125 C69.3408442 341.54974171 57.13467492 345.58339 43.95825195 347.82836914 C42.29580326 348.11657269 40.63820487 348.43350399 38.98510742 348.77124023 C29.99202144 350.50242661 21.15343574 350.593894 12.03125 350.55078125 C10.83462738 350.54804703 10.83462738 350.54804703 9.61383057 350.54525757 C-2.28204693 350.49946174 -13.80026877 350.07328824 -25.40625 347.23828125 C-26.14891113 347.06135742 -26.89157227 346.88443359 -27.65673828 346.70214844 C-32.96934894 345.40507841 -38.19686424 343.90016384 -43.40625 342.23828125 C-44.06657227 342.02864746 -44.72689453 341.81901367 -45.40722656 341.60302734 C-67.97437627 334.24121733 -87.47164715 321.54500423 -105.40625 306.23828125 C-106.68628906 305.16126953 -106.68628906 305.16126953 -107.9921875 304.0625 C-113.31688613 299.4504918 -117.84780976 294.54729118 -122.203125 289.01171875 C-123.86974767 286.91366539 -125.56756688 284.90696774 -127.3359375 282.8984375 C-130.48956557 279.23577489 -133.17260345 275.36457828 -135.78125 271.30078125 C-136.4923291 270.19379883 -136.4923291 270.19379883 -137.21777344 269.06445312 C-163.23547758 227.85072327 -170.05444775 180.15835159 -159.56225586 132.84008789 C-152.14478812 101.35449631 -135.23379691 74.74487023 -113.40625 51.23828125 C-112.86742187 50.6453125 -112.32859375 50.05234375 -111.7734375 49.44140625 C-105.96864417 43.31574495 -99.11915779 38.314807 -92.40625 33.23828125 C-91.55933594 32.59632813 -90.71242188 31.954375 -89.83984375 31.29296875 C-79.5156391 23.78128009 -68.26959647 17.82954948 -56.53125 12.86328125 C-55.77142822 12.54174072 -55.01160645 12.2202002 -54.22875977 11.88891602 C-45.13812194 8.15904456 -35.79182563 5.75384474 -26.21875 3.61328125 C-24.80045898 3.2884375 -24.80045898 3.2884375 -23.35351562 2.95703125 C-15.54336341 1.19362406 -8.00691753 0.08150472 0 0 Z " fill="#FEFEFE" transform="translate(288.40625,124.76171875)"/>
<path d="M0 0 C0.80179687 0.46148437 1.60359375 0.92296875 2.4296875 1.3984375 C8.33093204 4.78395874 14.24275407 8.14387521 20.20166016 11.42700195 C29.0621094 16.31109816 37.81813134 21.35911923 46.54785156 26.47290039 C52.96292499 30.23051702 59.39143325 33.96317194 65.83618164 37.66967773 C69.09304388 39.54410821 72.34557316 41.42588655 75.59765625 43.30859375 C79.88186784 45.78706867 84.18267138 48.23291797 88.49609375 50.66015625 C90.51844946 51.81471839 92.54059469 52.9696493 94.5625 54.125 C95.50303223 54.64521729 96.44356445 55.16543457 97.41259766 55.70141602 C98.26772949 56.19440186 99.12286133 56.6873877 100.00390625 57.1953125 C101.13034546 57.82977295 101.13034546 57.82977295 102.27954102 58.47705078 C104.57690536 60.51067627 104.81074114 61.98138069 105 65 C103.48046875 67.4296875 103.48046875 67.4296875 101.1875 69.875 C100.09501953 71.07769531 100.09501953 71.07769531 98.98046875 72.3046875 C92.13380215 78.88253867 83.62990142 83.51287851 75.375 88.0625 C73.33382408 89.20167245 71.29348498 90.3423454 69.25390625 91.484375 C68.21637207 92.06509766 67.17883789 92.64582031 66.10986328 93.24414062 C61.14602894 96.04677028 56.22918057 98.92818939 51.3125 101.8125 C42.6139069 106.90828571 33.88284547 111.94439441 25.125 116.9375 C16.06918881 122.10069273 7.02530731 127.28357581 -2 132.5 C-11.02530846 137.71642486 -20.06927803 142.89914975 -29.125 148.0625 C-37.77695859 152.99596734 -46.40477505 157.96819413 -55 163 C-64.76449516 168.71631857 -74.57478474 174.34978402 -84.40673828 179.94897461 C-90.30581193 183.30977116 -96.19526311 186.68543093 -102.0625 190.1015625 C-142.41385057 213.5817264 -142.41385057 213.5817264 -165.375 209.3828125 C-179.98650974 204.89612609 -193.47005747 195.45619154 -206.55859375 187.7734375 C-212.97976702 184.00569811 -219.42400765 180.27890119 -225.875 176.5625 C-226.95579834 175.93972168 -228.03659668 175.31694336 -229.15014648 174.67529297 C-231.34221359 173.41231067 -233.5343523 172.14945265 -235.7265625 170.88671875 C-238.9647516 169.0203162 -242.20139438 167.15126237 -245.4375 165.28125 C-257.24117161 158.46178895 -269.06279326 151.67532854 -280.90472412 144.92263794 C-288.96263303 140.32605725 -296.99412773 135.68667368 -305 131 C-313.55549584 125.99254795 -322.14032306 121.0385945 -330.75 116.125 C-331.33259583 115.79245209 -331.91519165 115.45990417 -332.51544189 115.11727905 C-337.87984456 112.05586069 -343.24622578 108.99792085 -348.61425781 105.94287109 C-355.65177349 101.93732928 -362.68315235 97.92150721 -369.70507812 93.88867188 C-371.86806305 92.64883404 -374.03336086 91.41302077 -376.20117188 90.18164062 C-389.90412268 82.39213989 -402.04136842 75.36511297 -411 62 C-406.34559302 57.90412186 -401.08218402 55.10970634 -395.6875 52.125 C-387.51545121 47.55660897 -379.38795577 42.92457843 -371.3125 38.1875 C-361.40846571 32.38434856 -351.45819669 26.66601586 -341.47583008 20.99902344 C-335.62385632 17.67225719 -329.80307302 14.30406567 -324.03125 10.83984375 C-322.93039062 10.18306641 -321.82953125 9.52628906 -320.6953125 8.84960938 C-318.61088656 7.60226647 -316.53242256 6.34488991 -314.4609375 5.07617188 C-313.53539062 4.52380859 -312.60984375 3.97144531 -311.65625 3.40234375 C-310.44678711 2.66745728 -310.44678711 2.66745728 -309.21289062 1.91772461 C-307 1 -307 1 -304.88696289 1.11035156 C-302.42587419 2.27068372 -301.60704711 3.54134493 -300.15234375 5.83203125 C-299.63478516 6.62528809 -299.11722656 7.41854492 -298.58398438 8.23583984 C-298.04064453 9.0861377 -297.49730469 9.93643555 -296.9375 10.8125 C-290.84158758 20.05150914 -284.20733254 27.79266746 -276.38671875 35.61328125 C-275.02338713 36.97661287 -273.66693633 38.34710383 -272.33203125 39.73828125 C-248.9000572 64.01356542 -215.8564976 79.10328714 -183 85 C-182.06800781 85.17587646 -181.13601563 85.35175293 -180.17578125 85.53295898 C-171.07373259 87.11293991 -162.08482952 87.44238307 -152.875 87.4375 C-152.09097809 87.43790283 -151.30695618 87.43830566 -150.49917603 87.4387207 C-121.2105701 87.35267919 -93.66833961 80.1132752 -68 66 C-66.98292969 65.45988281 -65.96585937 64.91976562 -64.91796875 64.36328125 C-51.24867264 56.8058257 -39.20595895 46.80214061 -28 36 C-27.28585937 35.33742188 -26.57171875 34.67484375 -25.8359375 33.9921875 C-15.49060373 24.14145136 -7.74135034 11.90850276 0 0 Z " fill="url(#defaultGradient)" transform="translate(452,387)"/>
<path d="M0 0 C1.23685547 -0.01160156 2.47371094 -0.02320313 3.74804688 -0.03515625 C11.45732614 -0.01069529 18.13792734 0.90353306 25.4375 3.375 C26.59121094 3.75140625 27.74492187 4.1278125 28.93359375 4.515625 C47.98088533 11.69946406 66.54243944 24.45227801 75.4375 43.375 C68.80474916 47.97718999 61.94495842 51.9863004 54.875 55.875 C46.33653084 60.61130046 37.8552437 65.42732568 29.4375 70.375 C21.17909621 75.22519527 12.86723735 79.96507101 4.5 84.625 C-2.99762961 88.80119854 -10.45205251 93.02913067 -17.83081055 97.41162109 C-24.61584089 101.43136132 -31.46306727 105.34145249 -38.3125 109.25 C-38.91186371 109.59224609 -39.51122742 109.93449219 -40.12875366 110.28710938 C-46.40042339 113.86820074 -52.67642934 117.4414686 -58.9609375 121 C-59.93321289 121.55187988 -60.90548828 122.10375977 -61.90722656 122.67236328 C-63.71748934 123.69957772 -65.5292653 124.7241315 -67.34277344 125.74560547 C-68.13973633 126.19822754 -68.93669922 126.65084961 -69.7578125 127.1171875 C-70.44891113 127.5076123 -71.14000977 127.89803711 -71.85205078 128.30029297 C-73.72358772 129.38772968 -73.72358772 129.38772968 -75.5625 131.375 C-86.73815686 109.52596299 -91.20912265 85.07524131 -83.953125 61.0078125 C-79.64897549 49.76382641 -74.08661187 39.81175375 -66.5625 30.375 C-65.92699219 29.5396875 -65.29148438 28.704375 -64.63671875 27.84375 C-48.83013036 9.03063538 -23.92844197 -0.22515 0 0 Z " fill="url(#defaultGradient)" transform="translate(299.5625,212.625)"/>
<path d="M0 0 C0.98742187 0.58136719 1.97484375 1.16273438 2.9921875 1.76171875 C3.74580566 2.17728027 4.49942383 2.5928418 5.27587891 3.02099609 C8.13032757 4.6127884 10.9355542 6.27461546 13.7421875 7.94921875 C15.89800539 9.22208631 18.05427109 10.49419566 20.2109375 11.765625 C21.32597656 12.42449707 22.44101562 13.08336914 23.58984375 13.76220703 C29.11744175 17.01070213 34.68153041 20.19527014 40.2421875 23.38671875 C51.23995201 29.71212264 62.14540673 36.18109035 72.9921875 42.76171875 C71.76690105 48.30767519 68.32777594 52.2543611 64.9921875 56.76171875 C64.2496875 57.77234375 63.5071875 58.78296875 62.7421875 59.82421875 C49.74545951 74.75573472 27.12696091 86.42708205 7.17749023 87.98095703 C-5.75256784 88.48299324 -17.77311834 88.3200332 -30.0078125 83.76171875 C-31.07 83.37628906 -32.1321875 82.99085938 -33.2265625 82.59375 C-50.0475354 76.03102194 -66.02071097 64.29695476 -75.6953125 48.82421875 C-77.0078125 45.76171875 -77.0078125 45.76171875 -76.88500977 43.75537109 C-75.63457164 40.91343463 -74.00318038 40.25692716 -71.28515625 38.80078125 C-70.28411865 38.25421875 -69.28308105 37.70765625 -68.25170898 37.14453125 C-66.61504272 36.27441406 -66.61504272 36.27441406 -64.9453125 35.38671875 C-62.64216905 34.13084845 -60.34011129 32.87298536 -58.0390625 31.61328125 C-57.450681 31.29304993 -56.8622995 30.9728186 -56.25608826 30.6428833 C-50.4192572 27.46118652 -44.67782374 24.12660898 -38.9453125 20.76171875 C-37.97408447 20.19662598 -37.00285645 19.6315332 -36.00219727 19.04931641 C-30.7566772 15.9914132 -25.55189482 12.87841196 -20.37890625 9.69921875 C-18.74804077 8.71115234 -18.74804077 8.71115234 -17.08422852 7.703125 C-14.99496077 6.43614894 -12.91542242 5.15294693 -10.84741211 3.8515625 C-3.93452923 -0.31169647 -3.93452923 -0.31169647 0 0 Z " fill="url(#defaultGradient)" transform="translate(302.0078125,299.23828125)"/>
<path d="M0 0 C5.94 0 11.88 0 18 0 C18 4.62 18 9.24 18 14 C24.6 14 31.2 14 38 14 C38 9.38 38 4.76 38 0 C43.94 0 49.88 0 56 0 C56 4.95 56 9.9 56 15 C60.62 15 65.24 15 70 15 C70 20.61 70 26.22 70 32 C65.38 32 60.76 32 56 32 C56 38.93 56 45.86 56 53 C60.62 53 65.24 53 70 53 C70 58.61 70 64.22 70 70 C65.38 70 60.76 70 56 70 C56 74.62 56 79.24 56 84 C50.39 84 44.78 84 39 84 C39 79.38 39 74.76 39 70 C31.74 70 24.48 70 17 70 C17 74.62 17 79.24 17 84 C11.39 84 5.78 84 0 84 C0 79.38 0 74.76 0 70 C-4.62 70 -9.24 70 -14 70 C-14 64.39 -14 58.78 -14 53 C-9.38 53 -4.76 53 0 53 C0 46.07 0 39.14 0 32 C-4.62 32 -9.24 32 -14 32 C-14 26.39 -14 20.78 -14 15 C-9.38 15 -4.76 15 0 15 C0 10.05 0 5.1 0 0 Z " fill="#FDFCFD" transform="translate(455,258)"/>
<path d="M0 0 C7.26 0 14.52 0 22 0 C22 6.93 22 13.86 22 21 C14.74 21 7.48 21 0 21 C0 14.07 0 7.14 0 0 Z " fill="url(#defaultGradient)" transform="translate(472,290)"/>
</svg>
