<?xml version="1.0" encoding="UTF-8"?>
<svg version="1.1" xmlns="http://www.w3.org/2000/svg" width="423" height="425">
<defs>
    <linearGradient id="defaultGradient" x1="0%" y1="0%" x2="100%" y2="100%" gradientTransform="rotate(50)">
      <stop offset="0%" style="stop-color:#ffd700;stop-opacity:1" />
      <stop offset="50%" style="stop-color:#ffc340;stop-opacity:1" />
      <stop offset="100%" style="stop-color:#ffbb6e;stop-opacity:1" />
    </linearGradient>
  </defs>
<path d="M0 0 C0.75667969 0.64710937 1.51335937 1.29421875 2.29296875 1.9609375 C4.91132021 4.258936 7.46222136 6.61315425 10 9 C10.56380371 9.52980469 11.12760742 10.05960938 11.70849609 10.60546875 C42.97909554 40.23638012 62.75270574 79.65954945 70 122 C70.11714355 122.6614502 70.23428711 123.32290039 70.35498047 124.00439453 C77.55725315 166.45820689 68.80799956 212.49824262 48 250 C47.65888184 250.61891113 47.31776367 251.23782227 46.96630859 251.87548828 C38.88274705 266.35963418 28.9600877 279.60569276 17.42724609 291.52148438 C15.94358254 293.05844409 14.48227723 294.61501765 13.01953125 296.171875 C-15.48951127 326.0579276 -55.44087682 345.41508595 -96 352 C-96.69625488 352.11569336 -97.39250977 352.23138672 -98.10986328 352.35058594 C-149.95139219 360.54697123 -203.74509989 346.57369922 -246 316 C-249.44075244 313.44414081 -252.75628931 310.80086367 -256 308 C-256.76828125 307.34128906 -257.5365625 306.68257813 -258.328125 306.00390625 C-260.93190708 303.7150978 -263.47273801 301.37311693 -266 299 C-266.52609863 298.50790039 -267.05219727 298.01580078 -267.59423828 297.50878906 C-303.62731529 263.52552902 -326.16808738 214.46065465 -328.12280273 164.88549805 C-329.36347103 114.28207007 -315.53487506 64.83710377 -282 26 C-281.34128906 25.23171875 -280.68257813 24.4634375 -280.00390625 23.671875 C-277.7150978 21.06809292 -275.37311693 18.52726199 -273 16 C-272.50790039 15.47390137 -272.01580078 14.94780273 -271.50878906 14.40576172 C-242.08796439 -16.78968098 -202.19894262 -36.97003543 -160 -44 C-158.71351563 -44.22429688 -157.42703125 -44.44859375 -156.1015625 -44.6796875 C-101.02327222 -52.70506712 -42.20917031 -36.43633529 0 0 Z " fill="url(#defaultGradient)" transform="translate(338,58)"/>
<path d="M0 0 C0.75667969 0.64710937 1.51335937 1.29421875 2.29296875 1.9609375 C4.91132021 4.258936 7.46222136 6.61315425 10 9 C10.56380371 9.52980469 11.12760742 10.05960938 11.70849609 10.60546875 C42.97909554 40.23638012 62.75270574 79.65954945 70 122 C70.11714355 122.6614502 70.23428711 123.32290039 70.35498047 124.00439453 C77.55725315 166.45820689 68.80799956 212.49824262 48 250 C47.65888184 250.61891113 47.31776367 251.23782227 46.96630859 251.87548828 C38.76287068 266.57442897 28.63194904 279.85336295 17 292 C13.52260786 290.50671153 11.27420371 288.52336294 8.60870361 285.85594177 C7.73654709 284.98797974 6.86439056 284.1200177 5.96580505 283.22575378 C5.0073799 282.26184562 4.049055 281.29783775 3.09082031 280.33374023 C2.07588675 279.31987984 1.06052032 278.30645261 0.04475403 277.29342651 C-2.70951757 274.54399924 -5.45750371 271.78836767 -8.20427227 269.03144717 C-11.07709002 266.14984725 -13.95517715 263.27351923 -16.83258057 260.39649963 C-21.66117261 255.56697136 -26.48587678 250.73358666 -31.30810547 245.89770508 C-36.89091092 240.29915232 -42.47894782 234.7058654 -48.0699985 229.1155476 C-53.44277383 223.74338152 -58.81269161 218.36836916 -64.18100739 212.9917469 C-66.46891179 210.70030344 -68.7576712 208.40971896 -71.04708099 206.11977959 C-73.73836266 203.42749707 -76.42709254 200.73269189 -79.11382484 198.0358696 C-80.10306659 197.04369518 -81.09316827 196.05237735 -82.08416557 195.06195641 C-83.43063639 193.71597262 -84.77374148 192.36662431 -86.11663818 191.01707458 C-86.87100033 190.2610366 -87.62536247 189.50499861 -88.40258408 188.72605038 C-90 187 -90 187 -90 186 C-82.41 186 -74.82 186 -67 186 C-67 181.71 -67 177.42 -67 173 C-82.51 173 -98.02 173 -114 173 C-114 159.8 -114 146.6 -114 133 C-100.47 133 -86.94 133 -73 133 C-73 129.04 -73 125.08 -73 121 C-86.53 121 -100.06 121 -114 121 C-114 108.79 -114 96.58 -114 84 C-99.48 84 -84.96 84 -70 84 C-70 79.71 -70 75.42 -70 71 C-89.14 71 -108.28 71 -128 71 C-128 96.41 -128 121.82 -128 148 C-130.31 146.02 -132.62 144.04 -135 142 C-136.81970216 140.75650265 -138.65114626 139.52994274 -140.49609375 138.32421875 C-148.03443587 132.72077194 -155.51033855 126.81781817 -157.6071167 117.22137451 C-159.62831051 101.98625599 -158.28354038 86.25348612 -157 71 C-161.62 71 -166.24 71 -171 71 C-171 82.22 -171 93.44 -171 105 C-178.875 98.25 -178.875 98.25 -182.18260193 94.93765259 C-182.93267014 94.18895905 -183.68273834 93.4402655 -184.45553589 92.66888428 C-185.25323395 91.86759094 -186.05093201 91.06629761 -186.87280273 90.24072266 C-187.73213913 89.38153229 -188.59147552 88.52234192 -189.47685242 87.63711548 C-191.81289178 85.30050229 -194.14670241 82.96170553 -196.4795177 80.62187624 C-198.92538015 78.16972672 -201.37410926 75.72044313 -203.82252502 73.27084351 C-208.44962953 68.64064138 -213.07418085 64.00789799 -217.69780165 59.37421739 C-222.96552311 54.09528586 -228.236113 48.81922216 -233.50693595 43.54338765 C-244.3411336 32.69876118 -255.17175532 21.85057065 -266 11 C-258.57861783 -4.82454921 -234.95136239 -16.25733019 -220 -24 C-219.35160156 -24.3398291 -218.70320313 -24.6796582 -218.03515625 -25.02978516 C-199.87544535 -34.42878404 -180.14492367 -40.64403677 -160 -44 C-158.07027344 -44.33644531 -158.07027344 -44.33644531 -156.1015625 -44.6796875 C-101.02327222 -52.70506712 -42.20917031 -36.43633529 0 0 Z " fill="url(#defaultGradient)" transform="translate(338,58)"/>
<path d="M0 0 C5.61 0 11.22 0 17 0 C20.49933943 3.64237327 21.9190711 5.65897508 24 10 C25.17322323 11.88854704 26.36648637 13.76477253 27.578125 15.62890625 C28.8044171 17.60532472 30.02830549 19.58323629 31.25 21.5625 C35.63286851 28.61974343 40.02973977 35.66291174 44.5625 42.625 C49.74924127 50.59404575 54.85855049 58.61097337 59.95703125 66.63671875 C65.96610712 76.09448164 71.98416046 85.54653787 78 95 C78 63.65 78 32.3 78 0 C82.62 0 87.24 0 92 0 C92 37.62 92 75.24 92 114 C86.39 114 80.78 114 75 114 C71.16910637 110.11515012 69.44431336 107.66641641 67 103 C65.84449852 101.10538479 64.65219838 99.23723668 63.45703125 97.36743164 C62.16265048 95.3360006 60.89554975 93.28950964 59.6328125 91.23828125 C56.99781099 86.97682062 54.29078317 82.76469439 51.5625 78.5625 C51.10149902 77.85206543 50.64049805 77.14163086 50.16552734 76.40966797 C49.23378651 74.97484558 48.30165881 73.54027433 47.36914062 72.10595703 C40.41453983 61.40866985 33.50512003 50.68284721 26.625 39.9375 C25.94671143 38.87853516 25.26842285 37.81957031 24.56958008 36.72851562 C23.92013428 35.71337891 23.27068848 34.69824219 22.6015625 33.65234375 C22.02744629 32.75507568 21.45333008 31.85780762 20.86181641 30.93334961 C18.55606333 27.30056398 16.28045116 23.64872186 14 20 C13.67 51.02 13.34 82.04 13 114 C8.71 114 4.42 114 0 114 C0 76.38 0 38.76 0 0 Z " fill="#FBFAFC" transform="translate(89,129)"/>
<path d="M0 0 C19.14 0 38.28 0 58 0 C58 4.29 58 8.58 58 13 C43.48 13 28.96 13 14 13 C14 25.21 14 37.42 14 50 C27.53 50 41.06 50 55 50 C55 53.96 55 57.92 55 62 C41.47 62 27.94 62 14 62 C14 75.2 14 88.4 14 102 C29.51 102 45.02 102 61 102 C61 105.96 61 109.92 61 114 C40.87 114 20.74 114 0 114 C0 76.38 0 38.76 0 0 Z " fill="#FAF9FC" transform="translate(210,129)"/>
<path d="M0 0 C26.07 0 52.14 0 79 0 C79 3.96 79 7.92 79 12 C68.11 12 57.22 12 46 12 C46 45.66 46 79.32 46 114 C41.71 114 37.42 114 33 114 C33 80.34 33 46.68 33 12 C22.11 12 11.22 12 0 12 C0 8.04 0 4.08 0 0 Z " fill="#FCFBFD" transform="translate(281,129)"/>
<path d="M0 0 C3.76832481 2.14928844 7.06126972 4.80446101 9.01953125 8.7734375 C10.78252931 15.40671771 11.25721377 24.10276882 7.95703125 30.3125 C3.98719614 35.14067783 -0.07657545 38.67250108 -6.4609375 39.34765625 C-11.5236716 39.54270296 -15.07700376 39.072387 -19.35546875 36.125 C-24.93288371 30.58686261 -26.51804536 26.79000274 -26.66796875 18.8125 C-26.70535156 17.51699219 -26.74273437 16.22148437 -26.78125 14.88671875 C-26.1666855 9.45712596 -23.84783363 6.46812839 -19.85546875 2.875 C-13.73701359 -1.40791861 -7.21475814 -2.68010916 0 0 Z " fill="#EBE9ED" transform="translate(207.35546875,284.875)"/>
<path d="M0 0 C4.91899031 2.40716547 6.85412662 4.91348533 9 10 C9 13.63 9 17.26 9 21 C0.42 21 -8.16 21 -17 21 C-14.99196322 29.39068834 -14.99196322 29.39068834 -11.8125 32.0625 C-6.54499913 33.81833362 -2.60197286 33.71198794 2.375 31.5 C3.24125 31.005 4.1075 30.51 5 30 C5.66 30 6.32 30 7 30 C7.3125 32.3125 7.3125 32.3125 7 35 C1.41669772 39.34256844 -5.15243849 39.78010194 -12 39 C-17.35141456 36.32429272 -20.73272534 32.72464051 -23.25 27.3125 C-24.81276102 20.41030548 -24.97805311 14.06017976 -21.3046875 7.828125 C-15.6239586 -0.13169873 -9.7276557 -1.58843998 0 0 Z " fill="#EBE8ED" transform="translate(274,285)"/>
<path d="M0 0 C1.04704102 -0.00483398 1.04704102 -0.00483398 2.11523438 -0.00976562 C5.8293738 0.02910739 8.65933302 0.26742271 11.8125 2.3125 C11.8125 4.2925 11.8125 6.2725 11.8125 8.3125 C10.69875 7.8175 10.69875 7.8175 9.5625 7.3125 C2.85386254 5.52353001 -4.37834848 4.79209108 -10.625 8.3125 C-14.65406841 11.3574327 -17.58758578 14.4611472 -19.1875 19.3125 C-20.10244959 26.71306573 -20.39936232 34.25371293 -16.40234375 40.796875 C-14.07890364 43.69557199 -11.48705217 45.66272391 -8.1875 47.3125 C-1.24201138 47.73020071 5.2531837 47.75317583 11.8125 45.3125 C11.8125 47.2925 11.8125 49.2725 11.8125 51.3125 C4.70326205 55.37492169 -3.72871249 55.70344105 -11.625 53.69140625 C-18.20274629 50.80079509 -22.37691081 45.17439904 -26.125 39.25 C-28.87402099 31.71180407 -28.4758085 22.03387937 -25.125 14.8125 C-19.18385037 4.75438471 -11.70115639 -0.27467503 0 0 Z " fill="#EAE8ED" transform="translate(161.1875,269.6875)"/>
<path d="M0 0 C3.64706399 2.12745399 5.43670531 4.13254486 7 8 C7.88912078 15.33007715 7.60979208 21.10971012 3 27 C0.08918497 29.39102663 -3.24867847 29.47997855 -6.96875 29.3828125 C-10.7246102 28.67497731 -12.41063007 26.77432493 -15 24 C-17.55642799 18.76457556 -17.69642556 13.72243651 -17 8 C-13.02736002 0.19170762 -8.25381458 -1.0811706 0 0 Z " fill="url(#defaultGradient)" transform="translate(204,290)"/>
<path d="M0 0 C0 1.98 0 3.96 0 6 C-1.051875 5.896875 -2.10375 5.79375 -3.1875 5.6875 C-7.11609522 5.65064764 -7.11609522 5.65064764 -9.875 8.3125 C-12.85541122 12.08184361 -13.14349686 14.87441529 -13.31640625 19.54296875 C-13.35830078 20.61611328 -13.40019531 21.68925781 -13.44335938 22.79492188 C-13.50233398 24.47424805 -13.50233398 24.47424805 -13.5625 26.1875 C-13.60568359 27.31865234 -13.64886719 28.44980469 -13.69335938 29.61523438 C-13.79949099 32.41003354 -13.90154385 35.20492162 -14 38 C-15.98 38 -17.96 38 -20 38 C-20 25.79 -20 13.58 -20 1 C-18.02 1 -16.04 1 -14 1 C-13.67 2.32 -13.34 3.64 -13 5 C-12.34 4.175 -11.68 3.35 -11 2.5 C-6.97633382 -0.85305515 -5.09299533 -0.43160977 0 0 Z " fill="#EEEDEF" transform="translate(247,285)"/>
<path d="M0 0 C3.375 2.0625 3.375 2.0625 6 5 C6.77152986 9.32056721 6.52747866 11.19119939 4.125 14.875 C1.62545713 17.37454287 0.67824042 17.90956794 -2.8125 18.375 C-6 18 -6 18 -8.8125 15.9375 C-11.43828382 12.41144744 -12.07836758 10.38858425 -12 6 C-8.71580324 0.79058445 -6.13630292 -0.70803495 0 0 Z " fill="#FAF9FC" transform="translate(59,227)"/>
<path d="M0 0 C2.875 1.5625 2.875 1.5625 5 4 C5.33 6.31 5.66 8.62 6 11 C-0.6 11 -7.2 11 -14 11 C-13.01221524 6.06107618 -12.26400276 4.56073029 -9 1 C-5.89951072 -0.55024464 -3.42105782 -0.28992015 0 0 Z " fill="url(#defaultGradient)" transform="translate(271,290)"/>
<path d="M0 0 C6.75 5.625 6.75 5.625 9 9 C6.03 9 3.06 9 0 9 C0 6.03 0 3.06 0 0 Z " fill="url(#defaultGradient)" transform="translate(224,221)"/>
</svg>
